<svg xmlns="http://www.w3.org/2000/svg" style="display: none">
  <!-- KPress icon set. Lucide Icons v1.17.0 (ISC, https://lucide.dev): stroke icons on a
       24x24 grid. This sprite is the single source of truth for KPress chrome glyphs. The
       server inlines it once per document; server-render and client JS then reference a
       symbol via <svg><use href="#kpress-icon-<name>"></svg> (fragment-only -- external
       file refs render blank in headless Chromium and some CSP/sandbox setups). Color comes
       from CSS `color` (stroke="currentColor"); size comes from the referencing <svg>. To
       add or swap a glyph, edit this file -- no SVG lives in Python or JS. See
       kpress-icons.md. -->
  <symbol id="kpress-icon-settings" viewBox="0 0 24 24" fill="none" stroke="currentColor" stroke-width="2" stroke-linecap="round" stroke-linejoin="round">
    <path d="M9.671 4.136a2.34 2.34 0 0 1 4.659 0 2.34 2.34 0 0 0 3.319 1.915 2.34 2.34 0 0 1 2.33 4.033 2.34 2.34 0 0 0 0 3.831 2.34 2.34 0 0 1-2.33 4.033 2.34 2.34 0 0 0-3.319 1.915 2.34 2.34 0 0 1-4.659 0 2.34 2.34 0 0 0-3.32-1.915 2.34 2.34 0 0 1-2.33-4.033 2.34 2.34 0 0 0 0-3.831A2.34 2.34 0 0 1 6.35 6.051a2.34 2.34 0 0 0 3.319-1.915"/>
    <circle cx="12" cy="12" r="3"/>
  </symbol>
  <symbol id="kpress-icon-monitor" viewBox="0 0 24 24" fill="none" stroke="currentColor" stroke-width="2" stroke-linecap="round" stroke-linejoin="round">
    <rect width="20" height="14" x="2" y="3" rx="2"/>
    <line x1="8" x2="16" y1="21" y2="21"/>
    <line x1="12" x2="12" y1="17" y2="21"/>
  </symbol>
  <symbol id="kpress-icon-sun" viewBox="0 0 24 24" fill="none" stroke="currentColor" stroke-width="2" stroke-linecap="round" stroke-linejoin="round">
    <circle cx="12" cy="12" r="4"/>
    <path d="M12 2v2"/><path d="M12 20v2"/><path d="m4.93 4.93 1.41 1.41"/>
    <path d="m17.66 17.66 1.41 1.41"/><path d="M2 12h2"/><path d="M20 12h2"/>
    <path d="m6.34 17.66-1.41 1.41"/><path d="m19.07 4.93-1.41 1.41"/>
  </symbol>
  <symbol id="kpress-icon-moon" viewBox="0 0 24 24" fill="none" stroke="currentColor" stroke-width="2" stroke-linecap="round" stroke-linejoin="round">
    <path d="M20.985 12.486a9 9 0 1 1-9.473-9.472c.405-.022.617.46.402.803a6 6 0 0 0 8.268 8.268c.344-.215.825-.004.803.401"/>
  </symbol>
  <symbol id="kpress-icon-x" viewBox="0 0 24 24" fill="none" stroke="currentColor" stroke-width="2" stroke-linecap="round" stroke-linejoin="round">
    <path d="M18 6 6 18"/><path d="m6 6 12 12"/>
  </symbol>
  <symbol id="kpress-icon-copy" viewBox="0 0 24 24" fill="none" stroke="currentColor" stroke-width="2" stroke-linecap="round" stroke-linejoin="round">
    <rect width="14" height="14" x="8" y="8" rx="2" ry="2"/>
    <path d="M4 16c-1.1 0-2-.9-2-2V4c0-1.1.9-2 2-2h10c1.1 0 2 .9 2 2"/>
  </symbol>
  <symbol id="kpress-icon-check" viewBox="0 0 24 24" fill="none" stroke="currentColor" stroke-width="2" stroke-linecap="round" stroke-linejoin="round">
    <path d="M20 6 9 17l-5-5"/>
  </symbol>
  <symbol id="kpress-icon-maximize" viewBox="0 0 24 24" fill="none" stroke="currentColor" stroke-width="2" stroke-linecap="round" stroke-linejoin="round">
    <path d="M8 3H5a2 2 0 0 0-2 2v3"/><path d="M21 8V5a2 2 0 0 0-2-2h-3"/>
    <path d="M3 16v3a2 2 0 0 0 2 2h3"/><path d="M16 21h3a2 2 0 0 0 2-2v-3"/>
  </symbol>
  <symbol id="kpress-icon-external-link" viewBox="0 0 24 24" fill="none" stroke="currentColor" stroke-width="2" stroke-linecap="round" stroke-linejoin="round">
    <path d="M15 3h6v6"/><path d="M10 14 21 3"/>
    <path d="M18 13v6a2 2 0 0 1-2 2H5a2 2 0 0 1-2-2V5a2 2 0 0 1 2-2h6"/>
  </symbol>
  <symbol id="kpress-icon-list" viewBox="0 0 24 24" fill="none" stroke="currentColor" stroke-width="2" stroke-linecap="round" stroke-linejoin="round">
    <path d="M3 5h.01"/><path d="M3 12h.01"/><path d="M3 19h.01"/>
    <path d="M8 5h13"/><path d="M8 12h13"/><path d="M8 19h13"/>
  </symbol>
  <symbol id="kpress-icon-triangle-alert" viewBox="0 0 24 24" fill="none" stroke="currentColor" stroke-width="2" stroke-linecap="round" stroke-linejoin="round">
    <path d="m21.73 18-8-14a2 2 0 0 0-3.48 0l-8 14A2 2 0 0 0 4 21h16a2 2 0 0 0 1.73-3"/>
    <path d="M12 9v4"/><path d="M12 17h.01"/>
  </symbol>
  <symbol id="kpress-icon-serif" viewBox="0 0 24 24" fill="none" stroke="currentColor" stroke-width="2" stroke-linecap="round" stroke-linejoin="round">
    <path d="M7 20 12 5l5 15"/>
    <path d="M8.7 15h6.6"/>
    <path d="M5 20h4"/><path d="M15 20h4"/><path d="M10.5 5h3"/>
  </symbol>
  <symbol id="kpress-icon-sans" viewBox="0 0 24 24" fill="none" stroke="currentColor" stroke-width="2" stroke-linecap="round" stroke-linejoin="round">
    <path d="M6 20 12 4l6 16"/>
    <path d="M8.2 14h7.6"/>
  </symbol>
</svg>
